HIERARCHY
ROOT Hips
{
    OFFSET 0.000000 0.000000 0.000000
    CHANNELS 6 Xposition Yposition Zposition Zrotation Xrotation Yrotation
    JOINT Spine
    {
        OFFSET -0.000000 7.750029 0.000000
        CHANNELS 3 Zrotation Xrotation Yrotation
        JOINT Spine1
        {
            OFFSET -0.000000 19.767460 0.000000
            CHANNELS 3 Zrotation Xrotation Yrotation
            JOINT Neck
            {
                OFFSET -0.000000 19.686279 1.789662
                CHANNELS 3 Zrotation Xrotation Yrotation
                JOINT Head
                {
                    OFFSET -0.000000 13.231757 -1.890251
                    CHANNELS 3 Zrotation Xrotation Yrotation
                    End Site
                    {
                        OFFSET -0.000000 23.628138 0.000000
                    }
                }
            }
            JOINT LeftShoulder
            {
                OFFSET 3.736819 16.910755 -0.280982
                CHANNELS 3 Zrotation Xrotation Yrotation
                JOINT LeftArm
                {
                    OFFSET 13.626117 0.000000 0.000000
                    CHANNELS 3 Zrotation Xrotation Yrotation
                    JOINT LeftForeArm
                    {
                        OFFSET 31.364786 0.000000 0.000000
                        CHANNELS 3 Zrotation Xrotation Yrotation
                        JOINT LeftHand
                        {
                            OFFSET 23.389509 0.000000 0.000000
                            CHANNELS 3 Zrotation Xrotation Yrotation
                            End Site
                            {
                                OFFSET 14.176883 0.000000 0.000000
                            }
                        }
                    }
                }
            }
            JOINT RightShoulder
            {
                OFFSET -3.821718 16.910755 -0.280982
                CHANNELS 3 Zrotation Xrotation Yrotation
                JOINT RightArm
                {
                    OFFSET -13.626117 0.000000 0.000000
                    CHANNELS 3 Zrotation Xrotation Yrotation
                    JOINT RightForeArm
                    {
                        OFFSET -31.364786 0.000000 0.000000
                        CHANNELS 3 Zrotation Xrotation Yrotation
                        JOINT RightHand
                        {
                            OFFSET -23.389509 0.000000 0.000000
                            CHANNELS 3 Zrotation Xrotation Yrotation
                            End Site
                            {
                                OFFSET -14.176883 0.000000 0.000000
                            }
                        }
                    }
                }
            }
        }
    }
    JOINT LeftUpLeg
    {
        OFFSET 9.451255 0.000000 0.000000
        CHANNELS 3 Zrotation Xrotation Yrotation
        JOINT LeftLeg
        {
            OFFSET -0.000000 -41.898624 0.000000
            CHANNELS 3 Zrotation Xrotation Yrotation
            JOINT LeftFoot
            {
                OFFSET -0.000000 -38.481331 0.000000
                CHANNELS 3 Zrotation Xrotation Yrotation
                JOINT LeftToeBase
                {
                    OFFSET -0.000000 -6.143315 14.176883
                    CHANNELS 3 Zrotation Xrotation Yrotation
                    End Site
                    {
                        OFFSET -0.000000 0.000000 3.780502
                    }
                }
            }
        }
    }
    JOINT RightUpLeg
    {
        OFFSET -9.451255 0.000000 0.000000
        CHANNELS 3 Zrotation Xrotation Yrotation
        JOINT RightLeg
        {
            OFFSET -0.000000 -41.898624 0.000000
            CHANNELS 3 Zrotation Xrotation Yrotation
            JOINT RightFoot
            {
                OFFSET -0.000000 -38.481331 0.000000
                CHANNELS 3 Zrotation Xrotation Yrotation
                JOINT RightToeBase
                {
                    OFFSET -0.000000 -6.143315 14.176883
                    CHANNELS 3 Zrotation Xrotation Yrotation
                    End Site
                    {
                        OFFSET -0.000000 0.000000 3.780502
                    }
                }
            }
        }
    }
}
MOTION
Frames:    14
Frame Time:    0.010000
-15.083000    90.809586    -26.881615    -1.157763    -2.525860    169.433075    0.317335    -3.672034    0.152137    0.948453    9.371469    0.064609    -5.143428    38.761467    7.023657    -7.270266    -31.024889    3.183988    10.046206    3.300822    -3.774121    -75.140694    52.638847    -11.467822    9.685265    -31.998812    -43.433296    -13.444370    -28.827024    1.607938    -9.486726    5.518852    2.380997    69.807243    40.057201    19.411575    -8.397499    -24.159542    32.722809    11.425927    -21.502275    4.129777    8.088744    -4.004486    4.778401    -2.997441    9.918491    4.075039    -4.888629    -6.128463    17.999304    0.000000    0.000000    0.000000    -8.824833    -4.687302    -1.403287    2.609364    11.414051    5.178148    4.891941    -9.509457    -23.700302    0.000000    0.000000    0.000000    
-15.078545    90.811737    -26.895369    -1.161413    -2.521946    169.451630    0.324752    -3.670050    0.150286    0.932157    9.353130    0.063532    -5.175828    38.812523    7.041945    -7.239135    -31.163652    3.196672    10.042647    3.313790    -3.754515    -75.118866    52.607079    -11.508066    9.671923    -31.936993    -43.420944    -13.426511    -28.771463    1.634411    -9.492455    5.571181    2.321420    69.951027    40.034580    19.440662    -8.174848    -24.400396    32.828876    10.964618    -21.827930    4.005950    8.073920    -3.975095    4.723573    -2.994739    9.891979    3.857810    -4.892916    -6.177807    18.250874    0.000000    0.000000    0.000000    -8.817906    -4.656976    -1.413804    2.589780    11.386305    5.176663    4.899086    -9.503837    -23.698082    0.000000    0.000000    0.000000    
-15.072691    90.809418    -26.900661    -1.153960    -2.552786    169.487915    0.340933    -3.683964    0.143299    0.931309    9.320431    0.056601    -5.209152    38.827812    7.044709    -7.204324    -31.263861    3.198943    10.027172    3.329607    -3.792114    -75.154839    52.579842    -11.463100    9.689484    -31.974356    -43.447495    -13.367414    -28.793699    1.564868    -9.504672    5.559248    2.305230    70.178253    39.997852    19.325972    -8.223179    -24.415314    32.774521    10.976319    -21.829023    4.055110    8.091888    -4.004498    4.668021    -2.998913    9.882900    3.914432    -4.892844    -6.175206    18.212391    0.000000    0.000000    0.000000    -8.821777    -4.647449    -1.415755    2.642240    11.339013    5.200692    4.845024    -9.517171    -23.765047    0.000000    0.000000    0.000000    
-15.067856    90.809929    -26.914640    -1.158709    -2.552365    169.503448    0.427684    -3.658205    0.166571    0.815809    9.243528    0.087114    -5.309006    38.845150    7.038635    -7.022307    -31.353937    3.237298    10.053134    3.319060    -3.817637    -75.143257    52.667377    -11.423578    9.721167    -32.000603    -43.447716    -13.402092    -28.803909    1.504776    -9.573630    5.639601    2.152600    70.437462    39.990814    19.381439    -7.890250    -24.630060    33.010635    10.183805    -22.184233    3.628305    8.083557    -3.982862    4.670955    -2.991730    9.850688    3.856205    -4.908431    -6.175511    18.249485    0.000000    0.000000    0.000000    -8.791731    -4.640454    -1.411704    2.571862    11.345255    5.113265    4.896102    -9.506280    -23.695555    0.000000    0.000000    0.000000    
-15.064987    90.810181    -26.921528    -1.162877    -2.565167    169.517090    0.438676    -3.674678    0.172021    0.808864    9.227335    0.092697    -5.395234    38.899582    7.051893    -6.931584    -31.530027    3.254506    10.000021    3.195288    -3.924486    -75.363945    52.575684    -11.106235    9.685413    -32.030132    -43.535347    -13.363539    -28.842592    1.539339    -9.649146    5.666985    2.099000    70.678734    39.936668    19.350113    -7.926035    -24.594669    32.976280    10.080913    -22.147520    3.582195    8.076159    -3.991389    4.681538    -2.977406    9.841352    3.958980    -4.909452    -6.166080    18.141115    0.000000    0.000000    0.000000    -8.794249    -4.641554    -1.391077    2.582223    11.341241    5.081093    4.878850    -9.507689    -23.711012    0.000000    0.000000    0.000000    
-15.060946    90.812851    -26.935741    -1.169126    -2.564866    169.524719    0.449359    -3.698086    0.167099    0.789111    9.253523    0.088773    -5.494535    38.910877    7.084708    -6.834791    -31.687073    3.295422    10.018909    3.351971    -3.797079    -75.058022    52.629002    -11.521703    9.637093    -32.052101    -43.481861    -13.310543    -28.883480    1.511774    -9.608327    5.728471    2.049106    70.710640    39.961063    19.413528    -7.989850    -24.589474    32.928322    10.044523    -22.126833    3.609933    8.071298    -3.976768    4.695223    -2.973353    9.812424    4.119737    -4.938607    -6.098712    17.951830    0.000000    0.000000    0.000000    -8.828965    -4.607179    -1.295774    2.661129    11.295671    5.063545    4.871101    -9.531011    -23.786283    0.000000    0.000000    0.000000    
-15.055577    90.807205    -26.941532    -1.169130    -2.575905    169.559647    0.451148    -3.717798    0.153469    0.782605    9.254315    0.075578    -5.484709    38.980381    7.071176    -6.885944    -31.901985    3.245673    10.012672    3.363484    -3.830790    -75.072021    52.541702    -11.507484    9.630586    -32.057377    -43.478264    -13.393733    -28.880938    1.399460    -9.611485    5.740672    1.997169    70.846512    40.011017    19.418087    -8.104473    -24.609039    32.822037    10.116767    -22.114979    3.679667    8.076406    -3.991369    4.699043    -2.974806    9.827291    3.860262    -4.889647    -6.139121    18.156845    0.000000    0.000000    0.000000    -8.799231    -4.625234    -1.425964    2.581625    11.338154    5.098156    4.891463    -9.546934    -23.733990    0.000000    0.000000    0.000000    
-15.039462    90.806419    -26.960028    -1.167651    -2.590788    169.630280    0.430725    -3.786177    0.116070    0.807928    9.307469    0.036205    -5.589849    39.037296    7.096016    -6.788558    -32.124969    3.270774    9.987919    3.349740    -3.833114    -75.057251    52.544384    -11.502764    9.652890    -32.069439    -43.483315    -13.361850    -28.889505    1.445583    -9.676366    5.743336    2.009473    71.071098    40.002686    19.378965    -8.395845    -24.544399    32.666321    10.479178    -21.975712    3.608989    8.098174    -4.010640    4.682128    -2.987839    9.844916    3.739344    -4.934151    -6.178034    18.220032    0.000000    0.000000    0.000000    -8.790157    -4.603618    -1.475154    2.583195    11.334530    5.110077    4.857665    -9.569971    -23.745363    0.000000    0.000000    0.000000    
-15.035720    90.806374    -26.974121    -1.160685    -2.570700    169.633514    0.444045    -3.788537    0.117476    0.798480    9.329062    0.037482    -5.728018    39.019249    7.121857    -6.606258    -32.228130    3.336360    9.978122    3.369234    -3.809183    -74.995903    52.547802    -11.584492    9.684404    -32.158928    -43.557793    -13.331612    -28.996334    1.760266    -9.691413    5.766247    1.986616    71.213440    39.988335    19.349104    -8.611583    -24.374298    32.530922    10.763283    -21.731007    3.770517    8.100331    -3.983474    4.735475    -2.977955    9.853926    3.724707    -4.891128    -6.175647    18.189104    0.000000    0.000000    0.000000    -8.787535    -4.572348    -1.452364    2.590682    11.332692    5.117944    4.866967    -9.573274    -23.787066    0.000000    0.000000    0.000000    
-15.031912    90.809120    -26.979256    -1.165922    -2.566907    169.646194    0.434482    -3.790249    0.112789    0.811289    9.338001    0.032554    -5.814552    38.984230    7.139248    -6.519420    -32.289501    3.369208    9.945722    3.350561    -3.824867    -74.988083    52.557564    -11.576400    9.856184    -31.908455    -43.421288    -13.395401    -28.677559    1.642200    -9.652475    5.807184    1.925892    71.251961    40.056545    19.376047    -8.755160    -24.315392    32.523476    10.783613    -21.638330    3.695202    8.101500    -3.989287    4.730624    -2.990410    9.852619    3.955992    -4.916152    -6.126372    17.979448    0.000000    0.000000    0.000000    -8.794048    -4.576707    -1.489954    2.583954    11.369860    5.169294    4.855059    -9.599787    -23.783642    0.000000    0.000000    0.000000    
-15.027433    90.803505    -26.987448    -1.161417    -2.554660    169.656967    0.439057    -3.786895    0.102981    0.794976    9.342357    0.024251    -5.816864    39.028339    7.137240    -6.554949    -32.445099    3.340204    9.958296    3.359738    -3.823878    -75.004524    52.517265    -11.583304    10.017493    -31.896498    -43.462231    -13.554491    -28.633184    1.896005    -9.692674    5.809132    1.916591    71.419975    40.103924    19.339193    -8.836004    -24.302670    32.493889    10.850292    -21.603777    3.692991    8.109935    -3.977434    4.737291    -2.996265    9.882253    3.670935    -4.903631    -6.205010    18.209967    0.000000    0.000000    0.000000    -8.793038    -4.559943    -1.465768    2.595870    11.373457    5.104106    4.854342    -9.598520    -23.769529    0.000000    0.000000    0.000000    
-15.030631    90.803223    -26.995064    -1.161653    -2.559549    169.657455    0.444705    -3.801276    0.102669    0.796737    9.353095    0.023242    -5.855886    38.986866    7.170064    -6.549431    -32.468605    3.368970    9.948484    3.432976    -3.798033    -74.846123    52.520000    -11.784934    10.000148    -31.897511    -43.433304    -13.520333    -28.643425    1.905433    -9.697825    5.826268    1.903098    71.502945    40.151295    19.331556    -8.882545    -24.374767    32.492733    10.917348    -21.662254    3.697969    8.109138    -3.989659    4.733020    -3.000359    9.912364    3.647110    -4.933518    -6.250681    18.258160    0.000000    0.000000    0.000000    -8.799537    -4.584900    -1.575807    2.583648    11.424706    5.194896    4.828469    -9.605065    -23.747971    0.000000    0.000000    0.000000    
-15.029834    90.801453    -27.002865    -1.163136    -2.543072    169.654709    0.437935    -3.796255    0.102980    0.803108    9.363219    0.022862    -5.857269    38.994057    7.172693    -6.605893    -32.545414    3.342991    9.927502    3.432853    -3.818874    -74.851021    52.494091    -11.778583    10.018169    -31.953922    -43.463257    -13.523667    -28.703716    2.011200    -9.721327    5.732393    1.917684    71.726288    40.222721    19.157248    -8.456458    -24.743021    32.755833    10.114000    -22.174646    3.500713    8.110923    -3.977979    4.783165    -3.000868    9.931743    3.630667    -4.873027    -6.220938    18.210913    0.000000    0.000000    0.000000    -8.798026    -4.577419    -1.612524    2.566179    11.449860    5.225455    4.826425    -9.621713    -23.748737    0.000000    0.000000    0.000000    
-15.023976    90.798965    -27.008184    -1.152770    -2.534436    169.651154    0.425259    -3.802430    0.103683    0.830238    9.380821    0.021747    -5.907330    38.988419    7.186482    -6.571548    -32.616116    3.356466    9.916978    3.406988    -3.838370    -74.874763    52.471931    -11.757589    9.996378    -31.952641    -43.481598    -13.471242    -28.709843    2.032305    -9.703476    5.820750    1.922695    71.736000    40.248535    19.204138    -8.445906    -24.844593    32.873970    9.967210    -22.288443    3.352601    8.130123    -3.971133    4.767852    -3.023481    9.949531    3.627685    -4.954628    -6.267020    18.272999    0.000000    0.000000    0.000000    -8.790971    -4.575512    -1.597965    2.576496    11.467704    5.208045    4.859629    -9.630212    -23.744272    0.000000    0.000000    0.000000    
